#N canvas 179 1108 1160 718 10;
#X obj 60 199 sendOSC;
#X msg 10 136 connect localhost 8080;
#X msg 60 158 disconnect;
#X floatatom 60 219 5 0 0 0 - - -;
#X floatatom 99 219 5 0 0 0 - - -;
#X obj 458 108 OSCroute /pixel;
#X obj 458 135 unpack i i;
#X floatatom 458 163 5 0 0 0 - - -;
#X floatatom 515 163 5 0 0 0 - - -;
#X obj 458 193 send w;
#X obj 515 193 send h;
#X obj 198 97 random 10;
#X obj 161 76 random 10;
#X obj 161 24 bng 15 250 50 0 empty empty empty 17 7 0 10 -262144 -1
-1;
#X obj 161 135 pack f f f;
#X obj 236 117 random 10;
#X obj 161 54 trigger a a a;
#X obj 249 54 receive w;
#X obj 287 75 receive h;
#X floatatom 249 76 5 0 0 0 - - -;
#X floatatom 287 97 5 0 0 0 - - -;
#X obj 458 54 dumpOSC 8081;
#X msg 161 154 send /of/test \$1 \$2 \$3;
#X obj 10 114 loadbang;
#X text 449 23 OSC receive from openFrameworks This gets window width
and height;
#X text 116 182 send OSC message with 3 integers 1:0~10 \, 2:0~WinWidth
\, 3:0~WinHeight;
#X obj 205 12 tgl 15 0 empty empty empty 17 7 0 10 -262144 -1 -1 1
1;
#X obj 986 145 gate 2;
#X msg 1006 65 0;
#X msg 1030 97 1;
#X msg 1103 92 2;
#X floatatom 987 189 5 0 0 0 - - -;
#X floatatom 1049 189 5 0 0 0 - - -;
#X floatatom 1088 131 5 0 0 0 - - -;
#X obj 575 136 unpack i i;
#X floatatom 575 163 5 0 0 0 - - -;
#X floatatom 632 163 5 0 0 0 - - -;
#X obj 597 302 mtof;
#X obj 597 333 osc~;
#X obj 597 361 hip~ 5;
#X obj 597 396 output~;
#X floatatom 635 281 5 0 0 0 - - -;
#X floatatom 638 310 5 0 0 0 - - -;
#X obj 746 302 mtof;
#X obj 746 333 osc~;
#X floatatom 784 281 5 0 0 0 - - -;
#X floatatom 787 310 5 0 0 0 - - -;
#X obj 746 359 hip~ 5;
#X obj 597 220 gate 2;
#X floatatom 606 251 5 0 0 0 - - -;
#X floatatom 672 254 5 0 0 0 - - -;
#X obj 597 271 + 60;
#X obj 746 271 + 72;
#X obj 458 82 OSCroute /window /sound;
#X obj 575 108 OSCroute /trigger;
#X obj 247 22 metro 300;
#X connect 0 0 3 0;
#X connect 0 1 4 0;
#X connect 1 0 0 0;
#X connect 2 0 0 0;
#X connect 5 0 6 0;
#X connect 6 0 7 0;
#X connect 6 1 8 0;
#X connect 7 0 9 0;
#X connect 8 0 10 0;
#X connect 11 0 14 1;
#X connect 12 0 14 0;
#X connect 13 0 16 0;
#X connect 14 0 22 0;
#X connect 15 0 14 2;
#X connect 16 0 12 0;
#X connect 16 1 11 0;
#X connect 16 2 15 0;
#X connect 17 0 19 0;
#X connect 18 0 20 0;
#X connect 19 0 11 1;
#X connect 20 0 15 1;
#X connect 21 0 53 0;
#X connect 22 0 0 0;
#X connect 23 0 1 0;
#X connect 26 0 55 0;
#X connect 27 0 31 0;
#X connect 27 1 32 0;
#X connect 28 0 27 0;
#X connect 29 0 27 0;
#X connect 30 0 27 0;
#X connect 33 0 27 1;
#X connect 34 0 35 0;
#X connect 34 1 36 0;
#X connect 35 0 48 1;
#X connect 36 0 48 0;
#X connect 37 0 38 0;
#X connect 37 0 42 0;
#X connect 38 0 39 0;
#X connect 39 0 40 0;
#X connect 43 0 44 0;
#X connect 43 0 46 0;
#X connect 44 0 47 0;
#X connect 47 0 40 1;
#X connect 48 0 49 0;
#X connect 48 0 51 0;
#X connect 48 1 50 0;
#X connect 48 1 52 0;
#X connect 51 0 37 0;
#X connect 51 0 41 0;
#X connect 52 0 43 0;
#X connect 52 0 45 0;
#X connect 53 0 5 0;
#X connect 53 1 54 0;
#X connect 54 0 34 0;
#X connect 55 0 16 0;
