#N canvas 25 125 1160 718 10;
#X obj 80 252 sendOSC;
#X msg 30 180 connect localhost 8080;
#X msg 80 212 disconnect;
#X floatatom 80 275 5 0 0 0 - - -;
#X floatatom 119 275 5 0 0 0 - - -;
#X obj 470 125 OSCroute /pixel;
#X obj 470 152 unpack i i;
#X floatatom 470 180 5 0 0 0 - - -;
#X floatatom 527 180 5 0 0 0 - - -;
#X obj 470 210 send w;
#X obj 527 210 send h;
#X obj 181 115 random 10;
#X obj 181 41 bng 15 250 50 0 empty empty empty 17 7 0 10 -262144 -1
-1;
#X obj 181 180 pack f f f;
#X obj 181 91 trigger a a a;
#X obj 269 91 receive w;
#X obj 307 114 receive h;
#X floatatom 269 115 5 0 0 0 - - -;
#X floatatom 307 138 5 0 0 0 - - -;
#X obj 470 71 dumpOSC 8081;
#X msg 181 212 send /of/test \$1 \$2 \$3;
#X obj 30 158 loadbang;
#X obj 225 40 tgl 15 0 empty empty empty 17 7 0 10 -262144 -1 -1 0
1;
#X obj 981 89 gate 2;
#X msg 949 61 0;
#X msg 981 61 1;
#X msg 1014 61 2;
#X floatatom 981 114 5 0 0 0 - - -;
#X floatatom 1014 139 5 0 0 0 - - -;
#X floatatom 1053 73 5 0 0 0 - - -;
#X obj 587 153 unpack i i;
#X floatatom 587 180 5 0 0 0 - - -;
#X floatatom 644 180 5 0 0 0 - - -;
#X obj 587 209 gate 2;
#X obj 470 98 OSCroute /window /sound;
#X obj 587 125 OSCroute /trigger;
#X obj 225 64 metro 300;
#X text 469 50 OSC receive from openFrameworks app.;
#X obj 983 244 counter 0 10;
#X floatatom 983 272 5 0 0 0 - - -;
#X obj 941 204 bng 15 250 50 0 empty empty empty 17 7 0 10 -262144
-1 -1;
#X msg 959 203 inc;
#X msg 986 203 dec;
#X floatatom 1017 220 5 0 0 0 - - -;
#X floatatom 1052 220 5 0 0 0 - - -;
#X text 1016 206 min;
#X text 1051 206 max;
#X text 1024 259 default min \, max;
#X obj 896 8 bng 15 250 50 0 empty empty empty 17 7 0 10 -262144 -1
-1;
#X obj 896 663 bng 15 250 50 0 empty empty empty 17 7 0 10 -262144
-1 -1;
#X text 924 39 < Switching >;
#X text 926 180 < Number Loop >;
#X text 921 15 [ TEST AREA ];
#X text 180 230 send OSC message with 3 integers;
#X text 180 244 [1]0~10 \, [2]0~WinWidth \, [3]0~WinHeight;
#X msg 105 483 60;
#X obj 136 513 mtof;
#X obj 359 641 output~;
#X obj 136 585 hip~ 5;
#X msg 132 483 61;
#X msg 213 483 66;
#X msg 240 483 68;
#X msg 159 483 63;
#X obj 136 560 osc~ 0;
#X obj 324 585 hip~ 5;
#X obj 324 560 osc~ 0;
#X msg 480 483 60;
#X obj 511 585 hip~ 5;
#X msg 507 483 61;
#X msg 588 483 66;
#X msg 615 483 68;
#X msg 534 483 63;
#X obj 511 560 osc~ 0;
#X obj 699 585 hip~ 5;
#X obj 699 560 osc~ 0;
#X obj 242 616 +~;
#X obj 511 615 +~;
#X obj 511 513 + 12;
#X obj 511 536 mtof;
#X obj 699 536 mtof;
#X obj 769 184 mtof;
#X obj 769 213 osc~;
#X obj 769 243 hip~ 5;
#X obj 779 279 output~;
#X floatatom 737 161 5 0 0 0 - - -;
#X floatatom 737 192 5 0 0 0 - - -;
#X obj 819 184 mtof;
#X obj 819 213 osc~;
#X floatatom 848 163 5 0 0 0 - - -;
#X floatatom 848 193 5 0 0 0 - - -;
#X obj 819 242 hip~ 5;
#X obj 769 123 gate 2;
#X obj 769 153 + 60;
#X obj 819 153 + 72;
#X text 772 101 *legacy;
#X obj 587 236 s g1;
#X obj 620 236 s g2;
#X obj 227 376 r g1;
#X obj 600 376 r g2;
#X floatatom 957 404 5 0 0 0 - - -;
#X obj 957 339 bng 15 250 50 0 empty empty empty 17 7 0 10 -262144
-1 -1;
#X msg 984 339 5;
#X text 931 310 < Random >;
#X obj 1018 361 bng 15 250 50 0 empty empty empty 17 7 0 10 -262144
-1 -1;
#X msg 1018 339 5;
#X obj 600 400 bng 15 250 50 0 empty empty empty 17 7 0 10 -262144
-1 -1;
#X obj 227 400 bng 15 250 50 0 empty empty empty 17 7 0 10 -262144
-1 -1;
#X obj 425 9 bng 15 250 50 0 empty empty empty 17 7 0 10 -262144 -1
-1;
#X obj 425 331 bng 15 250 50 0 empty empty empty 17 7 0 10 -262144
-1 -1;
#X obj 4 331 bng 15 250 50 0 empty empty empty 17 7 0 10 -262144 -1
-1;
#X obj 884 346 bng 15 250 50 0 empty empty empty 17 7 0 10 -262144
-1 -1;
#X text 27 356 [ Sound Playing Section ];
#X text 14 12 [ OSC Sending Section ];
#X text 452 12 [ OSC Receiving Section ];
#X floatatom 276 40 5 0 0 0 - - -;
#X obj 218 138 random 0;
#X obj 256 161 random 0;
#X obj 957 382 random 10;
#X text 365 390 Gamelan-code (slendro);
#X msg 561 483 65;
#X msg 186 483 65;
#X obj 129 430 random 6;
#X obj 129 455 select 0 1 2 3 4 5;
#X obj 504 455 select 0 1 2 3 4 5;
#X msg 293 483 60;
#X obj 324 513 mtof;
#X msg 320 483 61;
#X msg 401 483 66;
#X msg 428 483 68;
#X msg 347 483 63;
#X msg 374 483 65;
#X obj 317 430 random 6;
#X obj 317 455 select 0 1 2 3 4 5;
#X obj 504 430 random 6;
#X msg 668 483 60;
#X msg 695 483 61;
#X msg 776 483 66;
#X msg 803 483 68;
#X msg 722 483 63;
#X obj 699 513 + 12;
#X msg 749 483 65;
#X obj 692 455 select 0 1 2 3 4 5;
#X obj 692 430 random 6;
#X connect 0 0 3 0;
#X connect 0 1 4 0;
#X connect 1 0 0 0;
#X connect 2 0 0 0;
#X connect 5 0 6 0;
#X connect 6 0 7 0;
#X connect 6 1 8 0;
#X connect 7 0 9 0;
#X connect 8 0 10 0;
#X connect 11 0 13 0;
#X connect 12 0 14 0;
#X connect 13 0 20 0;
#X connect 14 0 11 0;
#X connect 14 1 115 0;
#X connect 14 2 116 0;
#X connect 15 0 17 0;
#X connect 16 0 18 0;
#X connect 17 0 115 1;
#X connect 18 0 116 1;
#X connect 19 0 34 0;
#X connect 20 0 0 0;
#X connect 21 0 1 0;
#X connect 22 0 36 0;
#X connect 23 0 27 0;
#X connect 23 1 28 0;
#X connect 24 0 23 0;
#X connect 25 0 23 0;
#X connect 26 0 23 0;
#X connect 29 0 23 1;
#X connect 30 0 31 0;
#X connect 30 1 32 0;
#X connect 31 0 33 0;
#X connect 32 0 33 1;
#X connect 33 0 95 0;
#X connect 33 1 96 0;
#X connect 34 0 5 0;
#X connect 34 1 35 0;
#X connect 35 0 30 0;
#X connect 36 0 14 0;
#X connect 38 0 39 0;
#X connect 40 0 38 0;
#X connect 41 0 38 0;
#X connect 42 0 38 0;
#X connect 43 0 38 2;
#X connect 44 0 38 4;
#X connect 48 0 49 0;
#X connect 55 0 56 0;
#X connect 56 0 63 0;
#X connect 58 0 75 0;
#X connect 59 0 56 0;
#X connect 60 0 56 0;
#X connect 61 0 56 0;
#X connect 62 0 56 0;
#X connect 63 0 58 0;
#X connect 64 0 75 1;
#X connect 65 0 64 0;
#X connect 66 0 77 0;
#X connect 67 0 76 0;
#X connect 68 0 77 0;
#X connect 69 0 77 0;
#X connect 70 0 77 0;
#X connect 71 0 77 0;
#X connect 72 0 67 0;
#X connect 73 0 76 1;
#X connect 74 0 73 0;
#X connect 75 0 57 0;
#X connect 76 0 57 1;
#X connect 77 0 78 0;
#X connect 78 0 72 0;
#X connect 79 0 74 0;
#X connect 80 0 81 0;
#X connect 80 0 85 0;
#X connect 81 0 82 0;
#X connect 82 0 83 0;
#X connect 86 0 87 0;
#X connect 86 0 89 0;
#X connect 87 0 90 0;
#X connect 90 0 83 1;
#X connect 91 0 92 0;
#X connect 91 1 93 0;
#X connect 92 0 80 0;
#X connect 92 0 84 0;
#X connect 93 0 86 0;
#X connect 93 0 88 0;
#X connect 97 0 106 0;
#X connect 98 0 105 0;
#X connect 100 0 117 0;
#X connect 101 0 117 0;
#X connect 103 0 117 0;
#X connect 104 0 103 0;
#X connect 105 0 133 0;
#X connect 105 0 142 0;
#X connect 106 0 121 0;
#X connect 106 0 131 0;
#X connect 107 0 108 0;
#X connect 109 0 110 0;
#X connect 114 0 36 1;
#X connect 115 0 13 1;
#X connect 116 0 13 2;
#X connect 117 0 99 0;
#X connect 121 0 122 0;
#X connect 122 0 55 0;
#X connect 122 1 59 0;
#X connect 122 2 62 0;
#X connect 122 3 120 0;
#X connect 122 4 60 0;
#X connect 122 5 61 0;
#X connect 123 0 66 0;
#X connect 123 1 68 0;
#X connect 123 2 71 0;
#X connect 123 3 119 0;
#X connect 123 4 69 0;
#X connect 123 5 70 0;
#X connect 124 0 125 0;
#X connect 125 0 65 0;
#X connect 126 0 125 0;
#X connect 127 0 125 0;
#X connect 128 0 125 0;
#X connect 129 0 125 0;
#X connect 131 0 132 0;
#X connect 132 0 124 0;
#X connect 132 1 126 0;
#X connect 132 2 129 0;
#X connect 132 3 130 0;
#X connect 132 4 127 0;
#X connect 132 5 128 0;
#X connect 133 0 123 0;
#X connect 134 0 139 0;
#X connect 135 0 139 0;
#X connect 136 0 139 0;
#X connect 137 0 139 0;
#X connect 138 0 139 0;
#X connect 139 0 79 0;
#X connect 141 0 134 0;
#X connect 141 1 135 0;
#X connect 141 2 138 0;
#X connect 141 3 140 0;
#X connect 141 4 136 0;
#X connect 141 5 137 0;
#X connect 142 0 141 0;
